<svg width="38" height="38" viewBox="0 0 38 38" fill="none" xmlns="http://www.w3.org/2000/svg">
<g clip-path="url(#clip0_304_2012)">
<path d="M19.0013 3.1665C10.293 3.1665 3.16797 10.2915 3.16797 18.9998C3.16797 27.7082 10.293 34.8332 19.0013 34.8332C27.7096 34.8332 34.8346 27.7082 34.8346 18.9998C34.8346 10.2915 27.7096 3.1665 19.0013 3.1665ZM24.8596 22.6415C25.493 23.2748 25.493 24.2248 24.8596 24.8582C24.2263 25.4915 23.2763 25.4915 22.643 24.8582L19.0013 21.2165L15.3596 24.8582C14.7263 25.4915 13.7763 25.4915 13.143 24.8582C12.5096 24.2248 12.5096 23.2748 13.143 22.6415L16.7846 18.9998L13.143 15.3582C12.5096 14.7248 12.5096 13.7748 13.143 13.1415C13.7763 12.5082 14.7263 12.5082 15.3596 13.1415L19.0013 16.7832L22.643 13.1415C23.2763 12.5082 24.2263 12.5082 24.8596 13.1415C25.493 13.7748 25.493 14.7248 24.8596 15.3582L21.218 18.9998L24.8596 22.6415Z" fill="#ED4D1B"/>
</g>
<defs>
<clipPath id="clip0_304_2012">
<rect width="38" height="38" fill="white"/>
</clipPath>
</defs>
</svg>
