<svg width="38" height="38" viewBox="0 0 38 38" fill="none" xmlns="http://www.w3.org/2000/svg">
<path d="M19.0013 3.1665C10.293 3.1665 3.16797 10.2915 3.16797 18.9998C3.16797 27.7082 10.293 34.8332 19.0013 34.8332C27.7096 34.8332 34.8346 27.7082 34.8346 18.9998C34.8346 10.2915 27.7096 3.1665 19.0013 3.1665ZM25.6513 16.3082L18.0513 23.9082C17.418 24.5415 16.468 24.5415 15.8346 23.9082L12.3513 20.4248C11.718 19.7915 11.718 18.8415 12.3513 18.2082C12.9846 17.5748 13.9346 17.5748 14.568 18.2082L16.943 20.5832L23.4346 14.0915C24.068 13.4582 25.018 13.4582 25.6513 14.0915C26.2846 14.7248 26.2846 15.6748 25.6513 16.3082Z" fill="#0AC655"/>
</svg>
